<svg width="1600" height="1190" viewBox="0 0 1600 1190" xmlns="http://www.w3.org/2000/svg">
<defs>
 <marker id="a" viewBox="0 0 10 10" refX="8.5" refY="5" markerWidth="8" markerHeight="8" orient="auto-start-reverse"><path d="M0,0 L10,5 L0,10 z" fill="#C9BCA9"/></marker>
 <marker id="aT" viewBox="0 0 10 10" refX="8.5" refY="5" markerWidth="8" markerHeight="8" orient="auto-start-reverse"><path d="M0,0 L10,5 L0,10 z" fill="#C96442"/></marker>
 <marker id="aA" viewBox="0 0 10 10" refX="8.5" refY="5" markerWidth="8" markerHeight="8" orient="auto-start-reverse"><path d="M0,0 L10,5 L0,10 z" fill="#B4802A"/></marker>
</defs>
<rect width="1600" height="1190" fill="#FAF6F0"/>

<text x="70" y="72" font-family="-apple-system,'SF Pro Text','Helvetica Neue',Arial" font-size="44" font-weight="800" fill="#2B2320">The production line</text>
<text x="70" y="110" font-family="-apple-system,'SF Pro Text','Helvetica Neue',Arial" font-size="22" fill="#8B7E70">one lap, end to end — a graph that decides, the world that renders, a backstop that ships</text>

<!-- ═══ band 1 · wf, the lap graph ═══ -->
<rect x="60" y="150" width="1480" height="330" rx="20" fill="#FFFFFF" stroke="#E8DFD2" stroke-width="2.5"/>
<text x="88" y="188" font-family="'SF Mono',Menlo,Consolas" font-size="17" fill="#2B2320" font-weight="700">wf · the lap graph — agent/graph.py</text>
<text x="88" y="212" font-family="-apple-system,Arial" font-size="15" fill="#8B7E70">stages 1–3 grew this · the EDGES hole is you writing it · the two grey feeds join LATER, one edge per chapter — and the map grows</text>

<!-- START -->
<circle cx="140" cy="320" r="26" fill="#2B2320"/>
<text x="140" y="326" font-family="'SF Mono',Menlo,Consolas" font-size="13" fill="#FFFFFF" text-anchor="middle">START</text>

<!-- readers: 2 wired + 2 future (dashed) -->
<g font-family="'SF Mono',Menlo,Consolas" font-size="15" font-weight="700">
 <rect x="210" y="238" width="212" height="40" rx="10" fill="#EFF4EC" stroke="#6E9A68" stroke-width="2.5"/><text x="316" y="264" text-anchor="middle" fill="#2B2320">scan_trends</text>
 <rect x="210" y="288" width="212" height="40" rx="10" fill="#EFF4EC" stroke="#6E9A68" stroke-width="2.5"/><text x="316" y="314" text-anchor="middle" fill="#2B2320">read_backcatalog</text>
 <rect x="210" y="342" width="212" height="40" rx="10" fill="#FAF6F0" stroke="#B9AFA2" stroke-width="2" stroke-dasharray="6 5"/><text x="316" y="368" text-anchor="middle" fill="#8B7E70">read_graph</text>
 <rect x="210" y="396" width="212" height="40" rx="10" fill="#FAF6F0" stroke="#B9AFA2" stroke-width="2" stroke-dasharray="6 5"/><text x="316" y="422" text-anchor="middle" fill="#8B7E70">read_memory</text>
</g>
<text x="436" y="368" font-family="-apple-system,Arial" font-size="12.5" fill="#8B7E70">wired in the BigQuery chapter</text>
<text x="436" y="422" font-family="-apple-system,Arial" font-size="12.5" fill="#8B7E70">wired in the Memory Bank chapter</text>
<path d="M166,310 L188,290 L202,262" fill="none" stroke="#C9BCA9" stroke-width="2.5" marker-end="url(#a)"/>
<path d="M166,320 L202,308" fill="none" stroke="#C9BCA9" stroke-width="2.5" marker-end="url(#a)"/>
<path d="M166,332 L188,352 L202,362" fill="none" stroke="#B9AFA2" stroke-width="2" stroke-dasharray="5 5"/>
<path d="M166,338 L188,388 L202,416" fill="none" stroke="#B9AFA2" stroke-width="2" stroke-dasharray="5 5"/>

<!-- join + compose -->
<rect x="470" y="288" width="150" height="46" rx="10" fill="#F6F1E8" stroke="#C9BCA9" stroke-width="2.5"/>
<text x="545" y="317" font-family="'SF Mono',Menlo,Consolas" font-size="15" font-weight="700" fill="#2B2320" text-anchor="middle">join_research</text>
<path d="M422,258 L446,258 L446,300 L462,304" fill="none" stroke="#C9BCA9" stroke-width="2.5" marker-end="url(#a)"/>
<path d="M422,308 L462,311" fill="none" stroke="#C9BCA9" stroke-width="2.5" marker-end="url(#a)"/>

<rect x="650" y="288" width="160" height="46" rx="10" fill="#FFFFFF" stroke="#E8DFD2" stroke-width="2.5"/>
<text x="730" y="317" font-family="'SF Mono',Menlo,Consolas" font-size="14" font-weight="700" fill="#2B2320" text-anchor="middle">compose_bundle</text>
<path d="M620,311 L642,311" fill="none" stroke="#C9BCA9" stroke-width="2.5" marker-end="url(#a)"/>

<!-- propose_directions agent -->
<rect x="840" y="284" width="196" height="54" rx="10" fill="#8B7EC8" stroke="#8B7EC8" stroke-width="2.5"/>
<text x="938" y="307" font-family="'SF Mono',Menlo,Consolas" font-size="14" font-weight="700" fill="#FFFFFF" text-anchor="middle">✦ propose_directions</text>
<text x="938" y="327" font-family="-apple-system,Arial" font-size="12.5" fill="#EDE7FA" text-anchor="middle">3 candidates, into STATE</text>
<path d="M810,311 L832,311" fill="none" stroke="#C9BCA9" stroke-width="2.5" marker-end="url(#a)"/>

<!-- direction_gate human pause -->
<rect x="1066" y="284" width="180" height="54" rx="10" fill="#FFF8E9" stroke="#B4802A" stroke-width="3"/>
<text x="1156" y="307" font-family="'SF Mono',Menlo,Consolas" font-size="14" font-weight="700" fill="#2B2320" text-anchor="middle">⏸ direction_gate</text>
<text x="1156" y="327" font-family="-apple-system,Arial" font-size="12.5" fill="#8B7E70" text-anchor="middle">you pick 1 / 2 / 3</text>
<path d="M1036,311 L1058,311" fill="none" stroke="#B4802A" stroke-width="2.5" marker-end="url(#aA)"/>

<!-- persist + policy + tail -->
<rect x="1276" y="288" width="160" height="46" rx="10" fill="#FFFFFF" stroke="#E8DFD2" stroke-width="2.5"/>
<text x="1356" y="317" font-family="'SF Mono',Menlo,Consolas" font-size="13" font-weight="700" fill="#2B2320" text-anchor="middle">persist_direction</text>
<path d="M1246,311 L1268,311" fill="none" stroke="#C9BCA9" stroke-width="2.5" marker-end="url(#a)"/>

<rect x="1050" y="386" width="196" height="54" rx="10" fill="#FFF8E9" stroke="#B4802A" stroke-width="3"/>
<text x="1148" y="409" font-family="'SF Mono',Menlo,Consolas" font-size="14" font-weight="700" fill="#2B2320" text-anchor="middle">policy_check</text>
<text x="1148" y="429" font-family="-apple-system,Arial" font-size="12.5" fill="#8B7E70" text-anchor="middle">reads policy_words.txt NOW</text>
<path d="M1356,334 L1356,360 L1254,404" fill="none" stroke="#C9BCA9" stroke-width="2.5" marker-end="url(#a)"/>

<rect x="770" y="366" width="130" height="42" rx="10" fill="#8B7EC8" stroke="#8B7EC8" stroke-width="2.5"/>
<text x="835" y="392" font-family="'SF Mono',Menlo,Consolas" font-size="13" font-weight="700" fill="#FFFFFF" text-anchor="middle">✦ scripter</text>
<path d="M1042,400 L960,392 L908,388" fill="none" stroke="#B4802A" stroke-width="2.5" marker-end="url(#aA)"/>
<rect x="928" y="368" width="48" height="24" rx="8" fill="#FFF8E9" stroke="#B4802A" stroke-width="1.6"/>
<text x="952" y="385" font-family="'SF Mono',Menlo,Consolas" font-size="12" fill="#B4802A" text-anchor="middle">OK</text>

<rect x="770" y="426" width="130" height="42" rx="10" fill="#FFFFFF" stroke="#E8DFD2" stroke-width="2.5"/>
<text x="835" y="452" font-family="'SF Mono',Menlo,Consolas" font-size="12.5" font-weight="700" fill="#2B2320" text-anchor="middle">store_script</text>
<path d="M835,408 L835,418" fill="none" stroke="#C9BCA9" stroke-width="2.5" marker-end="url(#a)"/>
<text x="906" y="452" font-family="-apple-system,Arial" font-size="12" fill="#8B7E70">runs quietly</text>

<rect x="1290" y="392" width="146" height="42" rx="10" fill="#F3F1EE" stroke="#B9AFA2" stroke-width="2.5"/>
<text x="1363" y="411" font-family="'SF Mono',Menlo,Consolas" font-size="13" font-weight="700" fill="#8B7E70" text-anchor="middle">quarantine</text>
<text x="1363" y="428" font-family="-apple-system,Arial" font-size="11.5" fill="#8B7E70" text-anchor="middle">the polite stop</text>
<path d="M1254,413 L1282,413" fill="none" stroke="#C9BCA9" stroke-width="2.5" marker-end="url(#a)"/>
<rect x="1236" y="440" width="66" height="24" rx="8" fill="#FFF8E9" stroke="#B4802A" stroke-width="1.6"/>
<text x="1269" y="457" font-family="'SF Mono',Menlo,Consolas" font-size="12" fill="#B4802A" text-anchor="middle">BLOCK</text>

<!-- band1 -> band2 -->
<path d="M835,468 L835,508" fill="none" stroke="#C96442" stroke-width="3.5" marker-end="url(#aT)"/>
<rect x="855" y="470" width="176" height="30" rx="9" fill="#FBEEE8" stroke="#C96442" stroke-width="2"/>
<text x="943" y="490" font-family="'SF Mono',Menlo,Consolas" font-size="14" fill="#C96442" text-anchor="middle">the 3-shot script</text>

<!-- ═══ band 2 · the world ═══ -->
<rect x="60" y="510" width="1480" height="250" rx="20" fill="#FAF6F0" stroke="#B4802A" stroke-width="2.5" stroke-dasharray="10 7"/>
<text x="88" y="548" font-family="'SF Mono',Menlo,Consolas" font-size="17" fill="#2B2320" font-weight="700">the world — deliberately NOT a graph</text>
<text x="88" y="572" font-family="-apple-system,Arial" font-size="15" fill="#8B7E70">machine waits live in the desk's plain session, the one the thumbnail chapter taught: a resumed graph re-runs its nodes, and a render must not submit twice</text>

<rect x="120" y="610" width="360" height="110" rx="14" fill="#FFFFFF" stroke="#E8DFD2" stroke-width="2.5"/>
<text x="144" y="646" font-family="'SF Mono',Menlo,Consolas" font-size="16" font-weight="700" fill="#2B2320">the desk · render_submit ×3</text>
<text x="144" y="672" font-family="-apple-system,Arial" font-size="14" fill="#8B7E70">LongRunningFunctionTool — three pending rows,</text>
<text x="144" y="692" font-family="-apple-system,Arial" font-size="14" fill="#8B7E70">no process waits · + the real thumbnail is generated</text>

<rect x="560" y="610" width="270" height="110" rx="14" fill="#FFF8E9" stroke="#B4802A" stroke-width="3"/>
<text x="584" y="646" font-family="'SF Mono',Menlo,Consolas" font-size="16" font-weight="700" fill="#2B2320">⏸ YOU · Approve</text>
<text x="584" y="672" font-family="-apple-system,Arial" font-size="14" fill="#8B7E70">the thumbnail — Regenerate if you like;</text>
<text x="584" y="692" font-family="-apple-system,Arial" font-size="14" fill="#8B7E70">your judgment is one function_response</text>

<rect x="910" y="610" width="510" height="110" rx="14" fill="#FFFFFF" stroke="#E8DFD2" stroke-width="2.5"/>
<text x="934" y="646" font-family="'SF Mono',Menlo,Consolas" font-size="16" font-weight="700" fill="#2B2320">then the worker runs ITSELF (agent/finish.py)</text>
<text x="934" y="672" font-family="-apple-system,Arial" font-size="14" fill="#8B7E70">polls the farm · delivers every result by call id · medic rewrites a failed</text>
<text x="934" y="692" font-family="-apple-system,Arial" font-size="14" fill="#8B7E70">shot · deadline bounds a straggler · try_finish() = your two lines say done</text>

<path d="M480,665 L552,665" fill="none" stroke="#C9BCA9" stroke-width="2.5" marker-end="url(#a)"/>
<path d="M830,665 L902,665" fill="none" stroke="#B4802A" stroke-width="2.5" marker-end="url(#aA)"/>

<!-- band2 -> band3 -->
<path d="M1165,720 L1165,758 L800,758 L800,796" fill="none" stroke="#C96442" stroke-width="3.5" marker-end="url(#aT)"/>
<rect x="812" y="754" width="140" height="30" rx="9" fill="#FBEEE8" stroke="#C96442" stroke-width="2"/>
<text x="882" y="774" font-family="'SF Mono',Menlo,Consolas" font-size="14" fill="#C96442" text-anchor="middle">all done</text>

<!-- ═══ band 3 · wf_post backstop ═══ -->
<rect x="60" y="798" width="1480" height="310" rx="20" fill="#FFFFFF" stroke="#E8DFD2" stroke-width="2.5"/>
<text x="88" y="836" font-family="'SF Mono',Menlo,Consolas" font-size="17" fill="#2B2320" font-weight="700">wf_post · the publish backstop — agent/post.py</text>
<text x="88" y="860" font-family="-apple-system,Arial" font-size="15" fill="#8B7E70">the policy gate already ran INSIDE the lap, before money — this one eval checks what the quiet script introduced, right before the side effect</text>

<circle cx="140" cy="960" r="26" fill="#2B2320"/>
<text x="140" y="966" font-family="'SF Mono',Menlo,Consolas" font-size="13" fill="#FFFFFF" text-anchor="middle">START</text>

<rect x="230" y="937" width="140" height="46" rx="10" fill="#FFFFFF" stroke="#E8DFD2" stroke-width="2.5"/>
<text x="300" y="966" font-family="'SF Mono',Menlo,Consolas" font-size="15" font-weight="700" fill="#2B2320" text-anchor="middle">editor</text>
<path d="M166,960 L222,960" fill="none" stroke="#C9BCA9" stroke-width="2.5" marker-end="url(#a)"/>

<rect x="470" y="930" width="200" height="60" rx="10" fill="#FFF8E9" stroke="#B4802A" stroke-width="3"/>
<text x="570" y="955" font-family="'SF Mono',Menlo,Consolas" font-size="15" font-weight="700" fill="#2B2320" text-anchor="middle">eval_gate</text>
<text x="570" y="977" font-family="-apple-system,Arial" font-size="13" fill="#8B7E70" text-anchor="middle">3 conduct checks · no invented evidence</text>
<path d="M370,960 L462,960" fill="none" stroke="#C9BCA9" stroke-width="2.5" marker-end="url(#a)"/>

<rect x="790" y="937" width="170" height="46" rx="10" fill="#C96442" stroke="#C96442" stroke-width="2.5"/>
<text x="875" y="966" font-family="'SF Mono',Menlo,Consolas" font-size="15" font-weight="700" fill="#FFFFFF" text-anchor="middle">publisher</text>
<path d="M670,948 L782,948" fill="none" stroke="#C9BCA9" stroke-width="2.5" marker-end="url(#a)"/>
<rect x="694" y="922" width="66" height="26" rx="8" fill="#FFF8E9" stroke="#B4802A" stroke-width="1.8"/>
<text x="727" y="940" font-family="'SF Mono',Menlo,Consolas" font-size="13" fill="#B4802A" text-anchor="middle">PASS</text>

<rect x="790" y="1030" width="170" height="46" rx="10" fill="#F3F1EE" stroke="#B9AFA2" stroke-width="2.5"/>
<text x="875" y="1059" font-family="'SF Mono',Menlo,Consolas" font-size="14" font-weight="700" fill="#8B7E70" text-anchor="middle">rejected</text>
<path d="M620,990 L620,1053 L782,1053" fill="none" stroke="#C9BCA9" stroke-width="2.5" marker-end="url(#a)"/>
<rect x="644" y="1027" width="66" height="26" rx="8" fill="#FFF8E9" stroke="#B4802A" stroke-width="1.8"/>
<text x="677" y="1045" font-family="'SF Mono',Menlo,Consolas" font-size="13" fill="#B4802A" text-anchor="middle">FAIL</text>

<!-- destinations -->
<rect x="1120" y="905" width="290" height="50" rx="12" fill="#EFF4EC" stroke="#6E9A68" stroke-width="2.5"/>
<text x="1265" y="936" font-family="-apple-system,Arial" font-size="16" font-weight="600" fill="#2B2320" text-anchor="middle">your wall · the Channel tab</text>
<rect x="1120" y="970" width="290" height="50" rx="12" fill="#EFF4EC" stroke="#6E9A68" stroke-width="2.5"/>
<text x="1265" y="994" font-family="-apple-system,Arial" font-size="16" font-weight="600" fill="#2B2320" text-anchor="middle">the room's VibeTube</text>
<text x="1265" y="1012" font-family="-apple-system,Arial" font-size="13" fill="#8B7E70" text-anchor="middle">silent — if Setup joined a room</text>
<path d="M960,950 L1112,930" fill="none" stroke="#6E9A68" stroke-width="3" marker-end="url(#a)"/>
<path d="M960,970 L1112,993" fill="none" stroke="#6E9A68" stroke-width="3" marker-end="url(#a)"/>

<text x="70" y="1160" font-family="-apple-system,Arial" font-size="17" fill="#8B7E70">the graph pauses for PEOPLE and refuses BEFORE money · the world holds the machine waits · the backstop stands in front of the one side effect</text>
</svg>
